<?xml version="1.0" encoding="UTF-8"?>
<svg id="Warstwa_1" data-name="Warstwa 1" xmlns="http://www.w3.org/2000/svg" viewBox="340 150 840 660">
  <defs>
    <style>
      .cls-1 {
        fill: #0a0905;
      }

      .cls-2 {
        fill: #a69471;
      }

      .cls-3 {
        fill: #f9e053;
      }

      .cls-4 {
        fill: #fbd73c;
      }

      .cls-5 {
        fill: #f9f3cd;
      }

      .cls-6 {
        fill: #fce35d;
      }

      .cls-7 {
        fill: #817053;
      }

      .cls-8 {
        fill: #f9de50;
      }

      .cls-9 {
        fill: #847457;
      }

      .cls-10 {
        fill: #f7f3cc;
      }

      .cls-11 {
        fill: #fbd946;
      }

      .cls-12 {
        fill: #fbf8d7;
      }

      .cls-13 {
        fill: #fcf6d2;
      }

      .cls-14 {
        fill: #fdf9ca;
      }

      .cls-15 {
        fill: #fbe564;
      }

      .cls-16 {
        fill: #fce76b;
      }

      .cls-17 {
        fill: #6f5d43;
      }

      .cls-18 {
        fill: #fbd539;
      }

      .cls-19 {
        fill: #fcf8d8;
      }

      .cls-20 {
        fill: #fbd843;
      }

      .cls-21 {
        fill: #8b7958;
      }

      .cls-22 {
        fill: #806e4f;
      }

      .cls-23 {
        fill: #fad335;
      }

      .cls-24 {
        fill: #fce870;
      }

      .cls-25 {
        fill: #9d8a69;
      }

      .cls-26 {
        fill: #766448;
      }

      .cls-27 {
        fill: #f9f6d2;
      }

      .cls-28 {
        fill: #fbd63f;
      }
    </style>
  </defs>
  <path class="cls-18" d="M894,525c.27,1.64-.47,2.8,1.5,4h1.5c.05.21.07.84,0,1-1.25,2.75,2.8,10.39,4,14.5.39,1.33.56,1.84,1,3,.68,1.8.02,3.09-2,2.5.74-2.59-3.73-5.55-4-6.5-1.72-5.98-6.51-12.47-10.5-17.5-1.22-1.54.54-2.94-2.5-1-.49-.65-.81-1.25-1-1.5-1.09-1.43-2.67-3.03-4.5-2.5-.91.26-9.99,10.23-12,12-1.63,1.43-5.23,3.61-7,5-.85.67-1.04,1.36-1.5,2-.08.11-1.33-.23-1,2l-5.5,2c-27.41,22.22-59.02,33.66-94,25-29.77-7.37-54.75-31.91-69.5-57.5-8.63-14.98-13.68-29.01-17-45-2.77-13.35-6.08-31.48-4-44,.58-3.49-.34-8.25,0-12,.69-7.56,3.7-18.79,6-26,2.71-8.49,7.72-20.98,13-28,1.7-2.26,4.65-4.25,6.5-6.5l-.5,4.5c-28.96,58.44-19.04,145.05,34.5,187.5,6.64,5.26,16.02,12.03,24,15,7.11,2.64,13.6,3.06,21,4,.37.05.64.97,1,1,10.34.94,28.82-.46,37-5,1.68-.93,2.92-2,5-2,3.11,0-.24-1.52.5-3,2.05.09,2.25-.53,2,2,3.41.11,6.5-2.35,9.5-4,11.67-6.41,23.06-14.16,33-23,5.21-4.64,16.39-18.43,21-21,1.75-.98,7.73-7.18,8.5-10,.23-.85,7.37-9.72,8-10,2.61-1.15,15.42-24.08,18-28.5,8.49-14.55,17.2-29.98,25-45,2.05-3.95,4.52-8.1,6-12.5,4.07-12.08,7.06-25.59,9-38.5,2.24-14.9,2.4-30.84,1-46-.56-6.03-.4-8.35-2-14-.18-.64.21-1.44,0-2-.23-.63-1.55-2.24-2-3-.16-.26.14-.79,0-1-.53-.8-2.67-2.88-3.5-3.5-.68-.5-3.15-1.5-4-2-19.65-11.56-43.28-18.32-64.5-23l1.5-2-6-1c-29.04-5.63-64.81-13.02-94-3-1.3-.67-3.82,1.67-4.5,1-.38-.38-.12-2.77,1-3.5,1.69-1.1,3.59.66,3-2.5.31-.09.69.09,1,0h1.5l.5-1c.33,0,.75-.07,1,0,.05.02-.19.82.5,1,.36.09,5.8-.78,7-1,.35-.06.57-.82,1-1,1.02-.42,1.9.91,1.5-2,.89-.19,2.44.26,3,0,2.11,1.3,5.14,1.3,7.5,1,7.73-.97,15.68-.95,24-1,1.56-.01,4.85.72,5.5-1,.82.39,6.23-.05,8,0l-.5,1c-3.76.36.2,1.68,3,1,.68-.17.45-.98.5-1,.6-.28,4.68-.03,6,0l-.5,1c-3.72.5.05,1.49,3,1,.26-.04.49-.87,1.5-1,1.18-.15,2.77-.07,4,0l-.5,1c-3.28.08-.9,1.71,2,1,.68-.17.45-.98.5-1,.43-.2,2.14,0,3,0-.76,2.36,1.31,2.53,3.5,2,.68-.17.45-.98.5-1,.4-.19,2.18-.03,3,0-.56,2.84.97,1.98,3.5,2l.5-1c14.85,2.5,28.85,6,43.5,11,1.99.68,5.07,2.46,7,3,4.15,1.16,1.65-1.42.5-3.5-13.42-24.4-31.96-40.74-56.5-53.5-33.69-17.53-72.29-21.43-109-12-31.7,8.14-48.44,27.13-68.5,51.5-5.33,6.47-5.23,4.5-11.5,8.5-.65.41-4.4,5.16-4.5,5.5-1.07,3.73-2.8,7.4-4,11-1.37,4.11-1.95,8.15-3,12-1.44,5.31-4.38,11.63-3,18,.21.97,2.68,4.62,3,6,.57,2.45-.76,3.15-1,4-.36,1.23-.58,3.94-1,5-1.45,3.65-3.78,7.32-5,11-5.93,17.88-8.19,36.31-11,55-.5,3.29-1.34,7.71-2,11-.19.95.24,3.26,0,3.5-.19.19-4.54.13-5.5,0-.82-.11-5.2-1.9-6-2-2.16-.27-7.99-.36-10,0-.45.08-3.2,1.64-4,2-1.49.67-5.04,1.83-5.5,3.5-.32,1.17-.26,9.53,0,11,.07.38.9.6,1,1,3.02,12.19,10.55,23.45,17,34,.54.88,3.7,4.77,3,5.5-1.08,1.13-3.66-2.38-4.5-3-8.53-6.29-19.07-14.95-28-20-2.44-1.38-5.93-4.47-8-2-5.38.14-9.57,1.82-14.5,3.5-1.43.49-2.52.68-4,.5l2.5,3c17.78,11.38,34.83,24.57,45.5,43.5,4.09,7.25,7.02,14.56,10,22l1,7.5-3-3.5c-10.24-22.55-28.43-42.36-49.5-54.5-5.04-2.9-8.34-4.6-14-6-.4-.1-.62-.93-1-1-1.8-.32-4.31.38-6,0-.4-.09-.68-1.36-2-1-3.8,1.05-5.33.55-9,1-10.59,1.31-22.6,5.83-33,9l-5.5,1,2.5,3c3.43.62,7.84,3.06,11,5,1.44.88,3.56,3.14,5,4,.99.6,2.06-1.01,1.5,3-1.27-1.15-2.57-.69-3.5-1-.4-.14-.61-.88-1-1-5.71-1.72-21.57-3.59-28-3-.36.03-.63.95-1,1-1.89.24-4.22-.32-6,0-.37.07-.59.88-1,1-14.43,4.11-23.1,17.31-30.5,29.5-10.06,16.57-17.64,32.76-27,50l-3,3.5c.18-2.09-.26-4.47,0-6.5.05-.37.93-.62,1-1,6.02-33.89,24.9-69.27,55.5-87.5,9.91-5.9,22.68-10.33,33-14,22.66-8.05,44.96-14.02,67-22,3.8-1.38,7.02-3.2,9.5-6.5,3.29-4.39,5.57-11.38,9-16,1.71-2.3,9.03-7.58,11.5-8.5,4.8-1.78,9.26-1.15,14-2,.37-.07.59-.87,1-1,.59-.19,1.37.18,2,0,.48-.14,2.44-3.21,2.5-3.5.26-1.15-.22-2.77,0-4,3.28-18.55,6.53-41.12,14-59,1.05-2.51,3.51-5.27,4-8-.66-1.22-2.73-4.01-3-5-.23-.83.2-2.09,0-3-.09-.39-.94-.63-1-1-.18-1.23-.18-3.77,0-5,.06-.37.93-.62,1-1,.38-2.1.51-3.08,1-5,2.88-11.19,6.19-22.38,11-33,2.02-4.46,2.49-5.05,6.5-7.5,5.89-3.61,7.24-4.12,11.5-9.5,15.78-19.92,32.07-36.41,55.5-46.5,11.27-4.85,21.03-7.2,33-9,25.01-3.76,49.03-1.78,72,5,11.97,3.53,22.86,7.81,34,14,23.17,12.87,42.65,32.2,55.5,55.5,3.56,6.45,4.14,11.33,10.5,16.5.89.72,4.08,2.27,5,3,2.63,2.07,7.59,5.62,9.5,8.5.14.21-.16.74,0,1,.4.68,1.88,2.57,2,3,.23.83-.2,2.09,0,3,.08.39.94.63,1,1,.25,1.53-.23,3.45,0,5,2.82,18.71,2.84,40.13,0,59-3.12,20.75-7.71,36.88-18,56-15.77,29.29-33.98,65.1-55,89-.97,1.1-6,5.58-6,6,0,.49,6,5.64,7,7,.75,1.02,1.78,3.13,2,4.5Z"/>
  <path class="cls-19" d="M728,599l1,5.5c5.56,16.5,17.75,29.31,31.5,40.5,3.07,2.5,7.64,5.87,11,8,1.56.99,1.7,3.45,3.5,4.5.04,2.39,1.61,4.24,1,7-.08.37-.83.57-1,1-.27.67-.73,2.58-1,3-.62.94-4.56,4.88-5.5,5.5-.21.14-.74-.16-1,0-.64.38-2.67,1.93-3,2-1.84.4-8.88.26-11,0-.37-.05-.62-.93-1-1-1.23-.22-2.85.25-4,0-3.68-.81-7.29-5.2-10-7-.41-.27-2.59-.73-3-1-.73-.49-6.27-6.01-6.5-6.5-.54-1.14.36-2.04,1.5-1.5.67.31,1.47,1.85,2,2,6.12,1.76,16.46,4.13,23,4,.84-.02,3.5.45,2.5-1.5-.2-.38-2.06-2.24-2.5-2.5-1.56-.94-4.44-1.06-6-2-7.07-4.25-18.1-19.17-21.5-26.5-1.86-4.01-5.28-11.11-6-15-.25-1.34.16-3.07,0-4.5-2.51.15-1.82,3.82-2,4s-.96-.22-1.5,0c-.43.18-.65.94-1,1-.91.16-3.09.17-4,0-.32-.06-5.14-1.66-6-2-1.05-.42-4.73-3.85-5.5-3-.35.39-.11,8.89,0,10.5.51,7.11,1.58,15.57,4,22l1,5.5-4-3.5c-5.6-12.08-12.01-25.06-10-39,.03-.18,2.05-2.45,1-3.5-.35-.35-2.8.73-3.5,1-9.61,3.73-17.08,9.44-23.5,17.5-1.01,1.27-4.5,6.22-5.5,6.5-1.31.36-1.52-.85-2-1-2.78-.89-5.32-.56-8-1-.78-.13-3.98-1.68-5-2-.88-.28-4.23-.1-3.5-2.5.28-.91,11.75-12,13.5-13.5,3.79-3.25,8.83-6.43,13-9,1.32-.81,3.1-1.44,3.5-3l-7.5,1c-6.24,1.68-12.44,5.11-19,7-.56.16-1.44,1.84-2,2-16.14,4.63-31.71,25.35-40.5,39.5-1.06,1.71-2.94,3.48-3,5.5-4.46.59-.38-4.84-1-7.5,4.14-15.17,11.46-23.5,22-35,1.02-1.11,2.38-1.68,2-3.5l3-1c-1.69-.29-3,.45-4.5,1-7.22,2.63-19.58,10.18-24.5,16.5-4.02,5.16-9.09,14.78-11,21-2.23,7.24-5.01,20.82-4,29,.05.37.93.62,1,1,.74,4.17.92,9.01,2,13,.35,1.28,2.83,3.19,2,5.5-2.37.32-3.02-1.86-4-3.5-2.25-3.74-3.57-6.71-5-11-6.23-18.7-.15-33.67,6-52l4-7c.14-3.85-4,.77-5,2-17.71,21.73-24.11,57.94-15,84,.15,4.52,7.29,10.93-1.5,7.5-6.44-5.28-9.53-11.54-11.5-19.5-.6-2.41-.62-3.47-1-6-.06-.38-.96-.64-1-1-2.54-24.31,5.15-49.08,18-70-.72-1.2,1.22-3.31,1-3.5-1.04-.91-4.02,1.5-5.5,1-2.76.98-5.13,2.65-8,4-13.78,6.46-29.13,11.44-42,20-17.57,11.68-32.35,29.54-43.5,47.5l-3,7.5c-2.02.59-2.68-.69-2-2.5,1.47-3.89,2.49-7.74,4-12,6.12-17.22,25.25-41.14,40.5-51.5,2.51-1.71,5.73-3.76,8.5-5.5,1.51-.95,3.22.29,3-1.5-2.09.18-4.47-.27-6.5,0-.37.05-.62.93-1,1-33.67,5.98-56.75,15.33-75.5,46.5-.98,1.64-1.63,3.82-4,3.5l1-5.5c1.93-2.73,2.69-6.09,4-9,7.91-17.53,21.75-30.09,39.5-37.5,2.49-1.04,7.55-2.5,10-3,5.35-1.09,10.42-.62,16-1,.35-.02.65-.98,1-1,12.5-.72,18.62,1.93,31-1,13.12-3.1,26.59-5.62,40-8,23.69-4.21,47.23-7.78,71-12s56.7-8.61,82-6c.36.04.62.94,1,1,2.51.38,4.58-.44,7,1,1.99,1.18,5.04,4.4,2,6l-5,1c-2.02,1.56-5.51,1.1-8,2-.59.21-.85,1.53-2.5,1Z"/>
  <path class="cls-23" d="M806,377c1.46,2.11,5.38.54,7.5,1s9.24,3.94,12,5c16.35,6.25,33.18,11.76,50,16,13.89,3.5,29.62,7.2,44,9,2.13.27,6.83-.84,7.5,1.5.56,1.96-.73,2.33-1,3-3.96,9.79-10.04,20.83-15.5,30.5-.49.87-2.57,3.63-.5,4-3.74,6.97-7.06,13.62-11,20.5-1.56,2.73-2.65,2.27-3,6.5-4.74,2.53-9.01,4.69-14.5,4-10.32-1.29-20.91-2.9-31-5-16.56-3.45-33.79-8.86-50-15-4.17-1.58-6.95-3.14-11-5-3.27-1.5-8.84-2.9-12-5-.74-.49-4.09-3.81-4.5-4.5-.13-.22.14-.69,0-1-.2-.43-.92-.64-1-1-.22-.98-.21-5.01,0-6,.18-.84,2.5-3.84,3-5,5.92-13.69,12.25-26.74,20-40,1.66-2.85,4.34-7.77,6-10,.46-.61,3.12-3.35,3.5-3.5.49-.2,1.12.14,1.5,0ZM916,414c-.28-.27-5.12.15-6.5,0-2.25-.25-6.63-1.53-9-2-18.85-3.77-36.35-8.11-55-15-10.27-3.79-20.47-8.97-31-13-.55-.21-1.35.17-2,0-.41-.11-.67-1-1-1-.18,0-2.21,2.05-2.5,2.5-.71,1.11-1.31,3.8-2,5-8.37,14.52-18.02,29.4-23,45-.13.41-.91.62-1,1-.15.62-.12,3.37,0,3.5s2.76.58,3.5,1c27.68,14.43,56.87,21.18,87,25,2.93.37,6.77.53,10,1,.36.05,1.62,1.66,4,1,.24-.07,3.17-3,3.5-3.5,1.15-1.74,2.67-5.59,4-8,6.69-12.13,13.44-24.74,19-37,.42-.93,3.15-4.37,2-5.5Z"/>
  <path class="cls-4" d="M862,689c2.91-1,1.46,1.91,2.5,2,1.65.14,3.35-.09,5,0,.56,1.26,3.4.49,2.5,2.5-1.09,2.43-5.41,1.24-7.5,1.5-.37.05-.64.96-1,1-2.39.25-5.06-.18-7.5,0l4,2c-10.54.51-22.23,3.17-32.5,5-20.32,3.61-40.55,6.4-60,13-27.5,9.34-55.3,24.76-83,34-11.52,3.84-21.75,6.44-33,9-14.85,3.38-31.28,7.03-47,8-9.6.59-20.09-1.16-29,1-1.73.42-4,.09-4.5-2,1.96.54,2.92-.83,4.5-1,15.73-1.71,30.83-3.06,46-6,23.63-4.59,47.6-12.12,71-21,27.95-10.61,55.58-25.89,84-34,24.58-7.01,50.65-11.23,77-14,.97-.1,8.1-.81,8.5-1Z"/>
  <path class="cls-12" d="M815.5,213c-1.29.13-5.5,1.68-7,2-32.23,6.92-56.69,28.72-74.5,56.5-3.08,2.09-3.41,6.88-7.5,6.5-2.8-.26-3.01-3.21-2.5-5.5.08-.36.8-.57,1-1,1.54-3.39,4.01-5.88,6-9,4.65-7.27,8.66-14.7,14-21,4.07-4.81,10.23-9.17,14-14,.61-.78,2.03-2.46,1.5-3.5-1.51.63-2.77,2.26-4,3-16.93,10.2-24.18,20.47-36.5,34.5-.77.87-5.13,5.4-5.5,5.5-.65.18-3.28.16-4,0-.36-.08-.57-.8-1-1-.31-.14-.78.13-1,0-.39-.23-2.45-2.33-2.5-2.5-.93-3.36,1.44-3.97,3-6,12.9-16.77,32.47-35.89,51.5-44.5,5.25-2.38,16.71-6.11,22-7,7.51-1.26,19.96-1.73,28-1,.36.03.63.95,1,1,9.5,1.21,17.87,2.34,27,5,.35.71,4.38,1.42,2.5,3-1.25,1.05-3.32-1-3.5-1-6.86,0-15.41-.68-22,0ZM765,222c-.76-.64-2.8.33-2,1,.76.64,2.8-.33,2-1Z"/>
  <path class="cls-1" d="M833,373c7.6,3.12,16.38,7.27,24.5,10l6.5,1c.14.16-.34.59,1,1,1.04.32,2.16.8,3,1,.2.05.84.07,1,0l5.5,2c17.91,4.45,35.84,6.21,54.5,9,1.46.22,7.7.7,8,1,.56.56-1.59,1.85,2,2,1.98.08,4.01-.06,6,0-1.48,4.4-3.95,8.55-6,12.5-7.8,15.02-16.51,30.45-25,45-2.58,4.42-15.39,27.35-18,28.5.23-3.93-.32-8.11,0-12,.35-4.23,1.44-3.77,3-6.5,3.94-6.88,7.26-13.53,11-20.5,1.88-3.5,4.28-7.44,6-11.5,2.12-5.02,1.97-2.47,3-3.5.69-.69,6.5-14.75,7-16.5.1-.36,2.67-3.42,3-5,1.06-5.13-1.23-2.98-4.5-3.5-15.64-2.47-31.93-5.06-47-9-6.06-1.58-11.82-3.11-18-5-14.4-4.41-29.36-9.68-44-15l-4.5-2c2.97-.16,6.02.05,9,0,.96-.02,3.85.15,4,0,.18-.18-.23-.96,0-1.5s1.34-.69,1-2c-.04-.17-1.82-1.68-1-2.5s2.23.91,2.5,1c1.96.68,4.55,1.2,6.5,2Z"/>
  <path class="cls-28" d="M523,588c2.44,2.08-3.18,2.27-4.5,2-16.67-3.35-43.72-2.05-60,2-12.51,3.11-24.57,5.85-36,14-9.34,6.66-15.42,14.81-20.5,24.5-1.36,2.6-4.31,8.48-5,11-.37,1.34-.7,2.84-1,4-.74,2.86-.58,5.2-1,8-.06.38-.96.64-1,1-.53,5.12-.47,14.83,0,20,.03.36.95.63,1,1,.44,3.49.23,6.67,1,10,1.01,4.34,3.63,10.42,6,15,.35.68,1.82,1.45,2,2,.3.93.27,3.4-1.5,2.5-.77-.39-5.69-5.46-6.5-6.5-3.27-4.21-7.42-12.83-9-18-.86-2.81-.58-5.24-1-8-.06-.38-.96-.64-1-1-.55-5.37-.65-17.74,0-23,.05-.37.93-.62,1-1,.41-2.31.36-4.62,1-7,.71-2.65,2.02-5.44,3-8,6.2-16.1,17.04-29.38,31.5-38.5,5.76-3.63,17.79-8.56,24-10,22.78-5.29,50.58-3.89,72,3l5.5,1Z"/>
  <path class="cls-24" d="M950,585c-.46,11.96-1.24,23.47-1,35.5.02,1.22-.75,3.73,1,3.5l1-6.5c6.26-26.11,16.28-53.23,26-79l3-4.5-1,7.5c-8.27,27.19-16,53.63-21.5,81.5l-.5,5,2-2.5v-2l4-6.5c.15,2.4,2.56,4.6,2,6.5-.14.49-1.74,2.37-2,3-.23.54.17,1.33,0,1.5-.36.36-5.29-.91-6,1.5s1.35,2.35-2,2.5c-.98.04-3.84-.16-4,0-.17.17.22.96,0,1.5-.17.42-.89.62-1,1-.51,1.73-.71,5.03-1,7l-2,3.5-.5-5c-.37-5.7-.78-12.07-1.5-17.5-.2-1.54.08-3.37,0-5s-.85-2.87-2-1.5c-.37.44.15,9.48,0,11.5-.32,4.26-1.67,4.5,0,10,1.02,3.37-3.46,10.49-4,13s-.36,5.77-1,9c-.19.95.24,3.25,0,3.5-1.83,1.87-2.28-2.72-3-2-1.31-1.09-2.15-3.02-3-4.5-5.11-8.93-13.21-17.27-18-26.5,3.51-.3,3.41,3.96,6,5-.66-2.08,1.56-3.71,1-5.5-.13-.4-.89-.61-1-1-.2-.74.21-2.29,0-2.5-.19-.19-1.81.19-2,0-.21-.21.21-1.78,0-2.5-.25-.85-4.57-3.16-5.5-3.5s-1.06-3.81.5-4c2.87,3.88,6.97,7.94,9,12.5l6,5.5-1-7.5c-1.6-9.09-7.9-20.1-10-29-.32-1.35-.06-6.88,2-4.5.12.14.59,2.77,1,3.5,5.23,10.55,9.84,20.1,14,31l4,6.5c-.14-1.79.21-3.75,0-5.5-1.1-9.26-3.08-19.26-4.5-28.5l-.5-5c2.32-.37,2.33.93,3,2.5,1.01,2.38,2.32,4.41,2,7l2,2.5c.19-4.47-.27-9.03,0-13.5.01-.25.93-.5,1-1.5,2.43-2.72,5.32,2.69,7,1,.16-.16-.01-3.47,0-4.5.03-1.97-1.02-4.07,2-3.5ZM930,636c-.07-.07-1.92-.07-2,0-.49.4.81,1.07,1,1.5.08.18.09,2.59,1,1.5.1-.12.11-2.89,0-3Z"/>
  <path class="cls-10" d="M934,327c-.59.55,2.82,2.88,3,3.5.39,1.37,2,6.61,2,7,0,.33-.94.62-1,1-.81,4.86.63,11.3,0,15-1.58,9.2-2.64,18.16-5,27-.11.41-1,.67-1,1s1,.67,1,1c0,.17-1.58,1-1,3,.18.64,3.61,3.27,4,5,.25,1.1-.29,4.21,0,4.5.14.14,1.35-.11,2,0,1.79.31.77,3.22,1,5-3.59-.15-1.44-1.44-2-2-.3-.3-6.54-.78-8-1-.77-2.76-2.75-1.68-4.5-2-10.92-2-22.24-2.62-33-5-5.46-1.21-18.34-5.89-22.5-4-.16.07-.8.05-1,0,.37-2.4-.19-2.17-2.5-2l-.5,1c-1.34-.41-.86-.84-1-1-1.83-2.19-2.81-2.14-5.5-3-6.94-2.22-14.48-4.24-21-8h-4.5c-1.95-.8-4.54-1.32-6.5-2-.27-.09-1.68-1.82-2.5-1s.96,2.33,1,2.5c.34,1.31-.77,1.44-1,2s.18,1.32,0,1.5c-.15.15-3.04-.02-4,0-.29-4.01-.19-2.53,2.5-3,.85-.15.68-1.9.5-2.5s-2.66-2.04-3.5-2.5c-7.84-4.25-15.76-8.41-23-13-1.16-.73-1.55-2.52-3.5-2l2-3c.07.83-.44,1.89.5,2,7.36.87,14.1,4.56,21,7,22.29,7.88,44.21,14.11,67,19,7.38,1.59,17.73,4.25,25,5,1.77.18,9.16-.34,9.5,0s-1.4,3.02,3.5,2c.36-.07.57-.82,1-1,.54-.22,1.33.17,1.5,0,.24-.24-.19-2.55,0-3.5.89-4.4,2.96-9.49,4-14,1.34-5.82,2.51-13,3-19,.53-6.37.84-12.6,1-19,.04-1.74-.28-4.07,2-1.5Z"/>
  <path class="cls-20" d="M612,551c.17.17.96-.22,1.5,0,.41.17.61.86,1,1,.56.2,1.34-.17,2,0,.4.1.62.92,1,1,5.44,1.13,10.7,1.31,16,3,.59.19,1.37-.18,2,0,2.16.62,1.2,3.89,1.5,5.5.07.38.94.62,1,1,.13.82.16,4.34,0,4.5-.19.19-4.63.15-5.5,0-3.03-.54-8.62-3.45-12-4-.81-.13-4.34-.16-4.5,0-.38.37.7,2.61,1,3.5.81,2.4,2.64,6.76,3,9,.13.81.16,4.34,0,4.5-.23.23-5.81.19-6.5,0-1.77-.49-1.24-2.91-1.5-3.5-9.24-20.49-14.69-41.72-26-62-8.04-14.42-18.55-30.16-32.5-39.5-1.01-.68-3.94-1.32-5-2-.83-.53-3.37-3.23-2.5-4,1.02-.91,4.03,1.5,5.5,1,32.27,12.14,48.38,43.79,58.5,73.5.41,1.21.58,3.83,1,5,.14.39.83.59,1,1,.22.54-.17,1.33,0,1.5Z"/>
  <path class="cls-20" d="M501,746c16.38-1.73,35.64-8.77,51.5-15,19.55-7.68,39.68-17.97,58-29,1.73-1.04,3.59-3.73,6-3,.38.12.58.83,1,1,.54.22,1.33-.17,1.5,0,.19.19-.26,1.03,0,1.5.39.69,1.83,1.47,2,2,.36,1.13-2.59,3.75-3.5,4.5-12.01,9.81-29.27,17.55-43,24-25.14,11.81-44.18,18.93-70.5,23l-.5-1c-.73-.13-2.32.18-2.5,0-.36-.36.26-6.54,0-8Z"/>
  <path class="cls-28" d="M491,767c.35-.31,3.69.31,4,0,.18-.18-.68-2.91,1.5-2,.43.18.64.93,1,1,4.87,1.01,3.07-1.47,3.5-2,.41-.5,1.13.9,1.5,1,2.6.69,3.14-1.76,4-2,2.75-.76,7.02-1.33,10-2,37.4-8.46,74.49-24.5,109-44,1.19-.64,5.58-4.88,6-5,3.11-.85,5.26,2.49,8.5,2,.56,2.46-1.65,4.63-3.5,6-18.48,13.64-41.73,23.86-63,32-17.48,6.69-34.09,11.53-52,15-1.99.38-11.9,1.72-12.5,2-2.02-.57-3.34-.86-5.5-1-3.27-.22-5.42.87-7,1-2.79.23-5.71-.16-8.5,0l3-1.5c-.06-.23-.08-.43,0-.5Z"/>
  <path class="cls-27" d="M836,508c1.29.64,3.36-1.56,4.5-2,2.21-.84,3.59,0,4,0s1.44-1.84,2-2c6.47-1.86,12.74-5.62,18-9,.98-.63,4.48-3.86,5-4,.66-.18,5.31-.19,5.5,0,.23.23-.16,2.98,0,4-1.8,1.05-3.64,2.92-5,4.5-15.53,18.02-38.67,39.38-60.5,47.5-1.49.55-2.82,1.29-4.5,1l2,3c-1.9,1.96-15.26,1.39-19.5,1-1.62-.15-3.64-.32-4.5-2,1.44-.04,3.19.22,4.5,0,.37-.06.6-.89,1-1,.74-.2,2.29.21,2.5,0,.55-.55-1.4-.78,1.5-2,2.17-.91,4.68-2.95,6.5-4,3.06-1.76,12.39-6.39,14-8,.19-.19-.21-1.57,0-2,.54-1.12,9.67-7.66,12-10,.29-.29.53-.45,1-1,.4-.47,1.12-.56,2-2,.26-.42,1.16-1.86,1-2-.53-.45-7.36.32-9,0l2-4c.11.11,1.99-.28,2.5,1,1.65.46,4.34-2.81,5-3s1.46.22,2,0c.4-.16.6-.83,1-1,.54-.22,1.33.17,1.5,0,.13-.13-.08-1.34,0-2h1.5l.5-1Z"/>
  <path class="cls-17" d="M759,443c-.89.97-4.49-2.73-5-3.5-.15-.22.16-.75,0-1-2.33-3.8-4.73-7.96-2-12,1.24-7.69,4.99-15.63,8-23,5.12-12.53,13.16-33.63,21-44,.62-.82,2.42-2.83,3.5-2.5.54.17,4.04,3.3,5,4,.22.16.79-.16,1,0,.58.43,3.43,3.26,3.5,3.5.31,1.13-1.58,2.96-2,4-4.57,11.23-10.35,21.06-16,32-4.61,8.92-15.57,27.72-17,37-.2,1.28.29,5.18,0,5.5Z"/>
  <path class="cls-20" d="M697,334c-.2-.26-2.98.86-2-2,3.4-.49,8.39.69,11.5,0,.37-.08.57-.83,1-1,6.61-2.63,9.05-5.44,12.5-11.5-.46-1.92,1.8-4.88,2-6,.37-2.1.37-10.9,0-13-.07-.37-.88-.59-1-1-.18-.64.21-1.44,0-2-.99-2.69-6.05-9.5-8.5-11.5-.19-.16-.78.17-1,0-4.31-3.34-8.28-7.21-13-10-1.99-1.18-3.44-2.59-6-2-.36.08-.57.8-1,1-.31.14-.78-.13-1,0-.57.34-2.03,1.88-2.5,2.5-1.29,1.7-3.91,6.59-5,9-1.81,4.02-6.19,14.58-7,18-.45,1.91.99,5.5-3,3-.68-.43-2.18-3.36-2-4,.11-.4.91-.62,1-1,.26-1.16-.24-2.81,0-4,.85-4.17,5.15-12.91,7-17,1.09-2.41,2.68-7.02,4-9,.46-.69,5.13-5.39,5.5-5.5.63-.18,1.41.19,2,0,.41-.13.62-.91,1-1,2.45-.57,3.15.75,4,1,.64.19,1.46-.22,2,0,2.17.87,3.31,2.83,5,4,5.93,4.08,12.26,8.31,18,13,2.93,2.39,6.05,7.36,7.5,10.5,1.37,2.96,1.37,3.87,2,7,.08.39.95.63,1,1,.26,1.8.26,6.2,0,8-.05.37-.92.61-1,1-.84,4.19-1.77,9.09-4,13-1.22,2.14-5.3,6.85-7.5,8.5-2.57,1.92-5.81,3.1-9,4-.41.12-.63.93-1,1-1.31.23-7.94.29-9,0-.17-.05-2.29-2.13-2.5-2.5-.26-.46.18-1.26,0-1.5Z"/>
  <path class="cls-1" d="M877,496c3.54.31,7.41-.22,11,0-.77,2.82-6.75,9.02-8.5,10-4.61,2.57-15.79,16.36-21,21-9.94,8.84-21.33,16.59-33,23-3,1.65-6.09,4.11-9.5,4,.25-2.53.05-1.91-2-2-1.72-.07-3.99.3-5.5,0-.34-.07-1.04-1.47-1.5-1l-2-3c1.68.29,3.01-.45,4.5-1,21.83-8.12,44.97-29.48,60.5-47.5,1.36-1.58,3.2-3.45,5-4.5.23,1.43.84.9,2,1Z"/>
  <path class="cls-5" d="M485,748l9,2c-2.7.27-5.91-.38-8.5,0-.36.05-.59.89-1,1-.74.2-2.29-.21-2.5,0-.18.18-.18,4.82,0,5,.31.31,4.77-.21,6,0,.08,2.01-3.17.68-4.5,1-.68.17-.39.76-.5,1-.49,1.1-8.75,1.36-11.5,2-2.52.59-4.25-1.47-7-1-4.3.74-10.14-.38-15-1-11.61-1.47-21.5-2.95-32-7-8.01-3.09-15.88-7.66-23-13-5.62-4.22-8.33-6.53-12.5-12-.2-.26-2.98.86-2-2l5.5,2c12.41,8.56,27.53,14.4,41,18,19.74,5.27,37.16,5.52,58.5,4Z"/>
  <path class="cls-20" d="M585,583c-2.32.37-2.34-.92-3-2.5-13.88-33.09-29.92-69.57-61.5-90.5l-4.5-4,7.5,1c23.91,9.85,42.1,31.68,52.5,55.5,5.06,11.58,6.89,23.32,8,36,.17,1.92.81,2.79,1,4.5Z"/>
  <path class="cls-15" d="M980,640v5c-.32.32-.66.67-1,1h-4c.06-1.66-.04-3.34,0-5,1.88-.31,3.25-.61,5-1Z"/>
  <path class="cls-15" d="M987,636c-.3.16-.98-.21-1.5,0-2.04.83.14,2.74-5.5,4l-.5-3c-.54.69-3.96,2.53-4.5,2-.88-.86,2.95-4.63,3-6l-5-2c.16-.22-.16-.78,0-1l1-1c2.41-3.29,4.66-6.6,7-10l1-1c.7-1.1.96-.94,1-1h1.5c.86-1.32,2.01-1.05,3.5-1-.17.31.25,1.04,0,1.5l-5,9c-.1,3.87,3.95-.78,5-2,14.83-17.26,30.19-36.13,46-53,7.88-8.42,16.54-16.15,24.5-24.5,1.82,1.19-.84,2.47-1.5,3.5-15.48,24.1-34.08,45.29-53,67-4.4,5.05-10.79,15.19-17,18.5ZM982.5,629c-.65,0-.65,1,0,1s.65-1,0-1ZM982,631c-.76-.64-2.8.33-2,1,.76.64,2.8-.33,2-1ZM981,635c1.03-1.03-.32-3.39-2-.5-.42.73,1.82.68,2,.5Z"/>
  <path class="cls-12" d="M539,606c.11.11.11,2.89,0,3-.24.24-2.55-.19-3.5,0-.57.12-1.51,1.58-4,1-13.73-3.21-37.75-.72-51,2s-23.75,7.45-36,13c-2.46,1.11-4.82,2.03-7,3-1.08.48-4.69,3.8-5.5,3-1.03-1.02,1.53-2.82,2-3.5.54-.79.82-2.56,2.5-3.5,2.43-1.36,4.82-5.53,8-8,7.31-5.68,22.2-12.05,31-14,4.57-1.01,9.18-.6,14-1,.36-.03.65-.98,1-1,5.48-.37,13.57-.44,19,0,6.13.5,13.04,2.75,19,4,2.94.61,4.85,1.49,7,2,.93.22,3.25-.25,3.5,0Z"/>
  <path class="cls-13" d="M730,705c-.17.17-.96-.23-1.5,0-.59.25-2.64,1.92-3,2-1.19.26-5.73.23-7,0-.37-.07-.59-.88-1-1-2.02-.57-5.15-1.26-7-2-7.1-2.83-15.49-8.11-22-13-11.32-8.51-16.71-16.52-19.5-30.5-.08-.39-.95-.63-1-1-.17-1.18-.29-8.19,0-8.5.51-.56,2.76.66,3,1.5.35,1.21.58,3.99,1,5,2.25,5.44,10.36,16.09,15.5,19.5,11.8,7.83,25.47,13.24,39,18,.41.14.62.9,1,1,.85.23,2.15-.23,3,0,.17.05,2.45,2.33,2.5,2.5.78,2.7-2.08,3.34-3,5-.26.47.19,1.31,0,1.5Z"/>
  <path class="cls-13" d="M688,651c.92-.97,2.86,1.44,3.5,2,4.42,3.88,6.12,5.2,11,8,12.01,6.9,25.14,12.33,38,17,3.43,1.24,9.75,4.42,13,5,1.54.27,7.46-.72,6.5,2.5-.15.49-1.61,2.3-2,3-.15.27.14.78,0,1-.93,1.45-1.93,1.18-2.5,1.5-3.9,2.17-7.79,4.86-12,2-7.43-1.17-13.63-4.41-20-8-11.09-6.25-27.39-17.03-33.5-28.5.17-1.26-2.78-4.67-2-5.5Z"/>
  <path class="cls-22" d="M942,302l-1,6.5c-.96,2.71-5.48,5.61-6,8-.31,1.43.23,3.45,0,5-.07.45-1.45,1.39-1,4,.17,1.02,1.57.05,0,1.5-2.28-2.57-1.96-.24-2,1.5-.16,6.4-.47,12.63-1,19-.49,6-1.66,13.18-3,19-1.04,4.51-3.11,9.6-4,14-.19.95.24,3.26,0,3.5-.17.17-.96-.22-1.5,0-.43.18-.64.93-1,1-4.9,1.02-3.16-1.66-3.5-2l1-5.5c4.5-19.8,9.67-42.36,6-63-.39-2.18-.19-4.82-1-7-.23-.62-1.72-2.33-2-3-.23-.54.17-1.33,0-1.5s-1,.25-1.5,0c-.71-.35-.45-.97-.5-1,.62-1.08,1.46-3.71,2.5-4,1.5-.41,7.06.44,7.5,0,.19-.19-.19-1.81,0-2,.12-.12,2.87-.14,3.5,0,.59.13,6.32,3.51,7,4,.87.63,1.07,1.42,1.5,2Z"/>
  <path class="cls-8" d="M1032,665c32.27-.25,63.02,1.76,94.5,2,1.3,0,3.72-.49,4.5.5-1.32,2.1-2.69,1.26-4.5,1.5-12.68,1.68-25.83,1.38-39,2-20.23.95-40.69,1.87-61.5,2-2.82.02-5.67-.01-8.5,0l-.5,1c-1.6.04-6.25-.35-7,0l3-2c-2.04-.24-4.58.34-6.5,0-.43-.08-3.34-1.79-4-2-1.67-.52-3.85,1.67-4.5,1-.11-.11-.11-2.89,0-3,.62-.62,14.64.23,17.5,0,1.44-.12,5.23-1.93,8-1l4.5-2c.33,0,.67,0,1,0l.5,1h2l.5-1Z"/>
  <path class="cls-21" d="M938,395c-.65-.11-1.86.14-2,0-.29-.29.25-3.4,0-4.5-.39-1.73-3.82-4.36-4-5-.58-2,1-2.83,1-3,0-.33-1-.67-1-1s.89-.59,1-1c2.36-8.84,3.42-17.8,5-27,.63-3.7-.81-10.14,0-15,.06-.38,1-.67,1-1,0-.39-1.61-5.63-2-7-.18-.62-3.59-2.95-3-3.5,1.57-1.45.17-.48,0-1.5-.45-2.61.93-3.55,1-4,.23-1.55-.31-3.57,0-5,.52-2.39,5.04-5.29,6-8l1-6.5s.6-.22,1,.5c.13.23-.13.69,0,1,.18.42.9.63,1,1,.23.84-.2,2.09,0,3,1.35,6.15,1.45,11.35,2,18,.96,11.7-.25,23.37-2,35-1.48,9.83-2.38,19.28-4,29l-2,5.5Z"/>
  <path class="cls-3" d="M913,616c-1.56.19-1.39,3.68-.5,4s5.25,2.65,5.5,3.5c.21.72-.21,2.29,0,2.5.19.19,1.81-.19,2,0,.21.21-.2,1.76,0,2.5.11.39.87.6,1,1,.56,1.79-1.66,3.42-1,5.5-2.59-1.04-2.49-5.3-6-5-.16-.3-.91-1.91-1-2,.26-2.11.11-2.26-2-2-1.05-2.74-2.84-1.84-3-2-.19-.19.69-2.75-1.5-4-2.8-1.59-.72-2.71-3-4-3.5-1.99-8.59-12.03-11.5-16.5-11.64-17.86-22.9-34.55-33-53-1.11-.95-2.8-3.13-3-4.5-.33-2.23.92-1.89,1-2,2.61,4.3,6.1,7.74,9,11.5,16.09,20.87,30.98,42.82,47,64.5Z"/>
  <path class="cls-11" d="M954,526c-2.93.87-1.87,3.92-2,6.5l1,.5c-.39.83.06,6.22,0,8l-1-.5c.56-1.08-.55-2.04-1-1.5s.32,6.91,0,8.5l1,.5c-.1.61.02,1.34,0,2-3.02-.57-1.98,1.53-2,3.5-.04,2.83-.88,4.74-1,6-.24,2.41.17,5.06,0,7.5l-6-2c.3-.65-.05-3.7,0-5,4.3.62.72-4.24,1-7,.3-.63.85-11.62,1-13.5,1.82-22.13,4.04-43.37,7-65,.61-4.46,3.33-9.89,3-15l2-2.5c-.17,5.14.23,10.35,0,15.5-.8,17.55-2.57,35.79-3,53.5Z"/>
  <path class="cls-13" d="M876,628c-.16-.16-.17-3.89,0-4.5.1-.37,4.91-5.15,5.5-5.5.22-.13.69.14,1,0,.43-.2.64-.92,1-1,4.23-.95,5.96,1.96,9,4,6.5,4.36,20.4,14.72,23.5,22.5.22.54-.19,1.35,0,2,.23.79,1.65,1.66,1,4-.07.24-3.26,3.43-3.5,3.5-1.92.55-2.25-.65-3-1-.31-.14-.79.13-1,0-.69-.42-1.28-1.5-2-2-8.82-6.14-16.79-12.96-26-19-1.38-.9-3.02-2.45-4-3-.47-.26-1.31.19-1.5,0Z"/>
  <path class="cls-16" d="M977,584c-.38,2.09-.53,5.8-1,7.5-.07.24-2.48,2.84-3,4-.41.9-1.54,3.97-1,4.5.37.36,3.22-.01,4-.5.43-.27,1.74-2.4,2-3,1.24-2.83,2.22-6.82,4-10l3-2.5c-6.3,15.09-12.27,29.92-18,45.5-1.03,2.8-3.15,6.15-4,9-1.51,5.05,3.55.98,5-1,1.54-2.09,3.44-4.36,5-6.5l5,2c-.05,1.37-3.88,5.14-3,6,.54.53,3.96-1.31,4.5-2l.5,3c-1.75.39-3.12.69-5,1s-5.95,3.62-7,5.5c-1.3,2.34-5.15,4.62-8,7-.63.52-2.19,2.38-3,1.5-.24-.26-.25-6.75,0-7,1.64-1.64.78,2,2-2.5.11-.41.94-.63,1-1,.26-1.69-.17-3.74,0-5.5-3.06.86-1.58,3.58-2,5.5l-2,2.5c-.24-2.99.57-6.43-.5-9l-.5-6c3.35-.15,1.3-.15,2-2.5s5.64-1.14,6-1.5c.17-.17-.23-.96,0-1.5.26-.63,1.86-2.51,2-3,.56-1.9-1.85-4.1-2-6.5-.16-2.56.73-2.62,1-3.5,2-6.61,5.2-12.42,7-19l6-10.5ZM963,644c.64-.76-.33-2.8-1-2-.64.76.33,2.8,1,2Z"/>
  <path class="cls-16" d="M987,636v1.5c-1.85,3.11-4.39,4.94-7,7.5v-5c5.64-1.26,3.46-3.17,5.5-4,.52-.21,1.2.16,1.5,0Z"/>
  <path class="cls-6" d="M888,685c5.26,2.47,9.42-.74,15.5,0l4.5-1c.26,2.28-1.43,3.37-3.5,3l-3.5,3c1.95-.3,4.76.43,6.5,0,.68-.17.45-.98.5-1,.22-.1,3.33-.69,4.5-1,4.63-1.23,9.33-1.82,14-3,.37-.09,2.28-2,3.5-1,.53.43-1.68,1.92-2,2.5-.26.47.19,1.31,0,1.5-.17.17-.96-.23-1.5,0-.62.26-2.52,1.86-3,2-1.44.41-.64-1.33-3.5,0-5.52,2.57-17.14,4.33-24.5,7-5.34,1.94-11.64,3.83-16.5,6-1.13-.01-1.69-1.55-2.5-2s-1.99.94-1.5-2c.09-.06.12-1.59,1.5-1l2.5-2c-2.12.15-4.41-.21-6.5,0-3.82.39-8.35,1.8-12.5,2l-4-2c2.44-.18,5.11.25,7.5,0,.36-.04.63-.95,1-1,2.09-.26,6.41.93,7.5-1.5.9-2.01-1.94-1.24-2.5-2.5-1.65-.09-3.35.14-5,0-1.04-.09.41-3-2.5-2,2.05-.96,24.35-4.78,26-4Z"/>
  <path class="cls-26" d="M793,489c-2.55-1.14-3.55-1.41-6.5-3-10.85-5.86-21.94-13.06-31-21-6.95-6.09-12.27-13.23-17.5-20.5l2,2.5,5.5,2c11.58,8.65,25.15,14.15,38,20,1.18.54,1.6.03,2.5,2,.15.33-.21,1,0,1.5.62,1.52,5.86,7.51,6,8,.23.85-.23,2.14,0,3,.41,1.54,3.3,2.97,1,5.5Z"/>
  <path class="cls-27" d="M859,609c-1.53,1.56-7.49-3.41-8.5-5-5.82-3.06-11.66-7.78-18-10-4.01-1.4-7.13-1.42-11-2-.38-.06-.64-.96-1-1-3.37-.35-9.63-.35-13,0-.36.04-.62.94-1,1-4.2.63-9.15.57-13,2-2.66.99-4.42,2.78-8,3-.9.06-3.47.4-2.5-1.5.28-.55,4.79-5.03,5.5-5.5.21-.14.74.16,1,0,3.43-2.03,6.32-2.96,10-4,6.78-1.92,17.16-3.15,25-2,.37.05.61.92,1,1,7.95,1.59,11.5,2.59,19,7,3.6,2.12,9.71,5.66,12.5,9.5.17.24,1.95,2.82,2,3,.17.61.16,4.34,0,4.5Z"/>
  <path class="cls-20" d="M780,256c.59,3.16-1.31,1.4-3,2.5-1.12.73-1.38,3.12-1,3.5.68.67,3.2-1.67,4.5-1,29.19-10.02,64.96-2.63,94,3l6,1-1.5,2c-18.4-4.06-39.05-7.95-58.5-9-5.4-.29-10.39.66-15,1-7.22.54-13.19.42-20,2-16.86,3.91-32.87,14.54-44.5,28.5-.21.25-.5,3.1-2.5,2.5-.45-.14-3.37-2.03-3.5-2.5-1.11-4.06,3.96-6.11,6-9,2.4-3.4,6.94-6.77,10.5-9.5,9.13-7.01,17.58-11.93,28.5-15Z"/>
  <path class="cls-2" d="M877,496c-1.16-.1-1.77.43-2-1-.16-1.02.23-3.77,0-4-.19-.19-4.84-.18-5.5,0-.52.14-4.02,3.37-5,4-5.26,3.38-11.53,7.14-18,9-.56.16-1.61,2-2,2s-1.79-.84-4,0c-1.14.44-3.21,2.64-4.5,2-.05-.02.2-.73-.5-1-1.95-.75-1.35.78-1.5,2-.08.66.13,1.87,0,2-.17.17-.96-.22-1.5,0-.4.17-.6.84-1,1-.54.22-1.35-.19-2,0s-3.35,3.46-5,3c-.51-1.28-2.39-.89-2.5-1-.19-.19.19-1.81,0-2-.36-.36-4.28.34-5.5,0-.5-.14-1.31-1.62-2-2-.99-.55-2.03,1.03-1.5-3,.92.15,2.02-.06,3,0l.5,1,.5-1c.66.02,1.34,0,2,0,.07.64-.13,1.87,0,2,.32.32,8.68.32,9,0,.19-.19-.21-1.57,0-2,.47-.96,2.89-.8,3.5-1,.69-.23.45-.98.5-1,1.12-.53,5.08,1.09,4-1.5-.29-.69-1.57-1.06-1-3,.76-2.6,3.26-4.87,2-9l5-4.5c7.81,1.36,20.31,3.28,27.5,2,6.43-1.15,8.4.46,7.5,7Z"/>
  <path class="cls-15" d="M977,648c.05.02-.18.83.5,1,1.31.32,1.38-.69,2-1,6.66-3.33,11.82-9,19-12,.89-1.02,6.15-5.19,7.5-4,.19.17-1.48,2.85-2,3.5-3.18,3.96-13.99,14.86-18,17.5-.27.18-1.08-.28-1.5,0-3.05,2.02-2.29,4.79-2.5,5-.26.26-4.24-.16-5.5,0-.37.05-.64.96-1,1-1.21.12-7.23.26-7.5,0-1.25-1.21,5.25-8.27,6-9.5.44-.72.96-1.4,1-1.5.63.09,1.59-.16,2,0Z"/>
  <path class="cls-15" d="M1032,640c.49,2.93-.74,1.57-1.5,2-1.41.8-1.19,1.91-1.5,2.5-.22.42-.84.62-1,1-.9,2.16,2.03,1.49,3.5,1.5l.5,1c-5.18,2.18-37.96,17-40,16-.05-.02.18-.83-.5-1-2.06-.53-2.44.82-3,1-.59.19-1.37-.18-2,0-.15.04-2.43,1.86-2.5,2,1.91-1.91-3.97-3.84-3,0l-11,.5c.72-1.35,2.18-1.28,3-2,3.37-2.95,5.28-4.86,9-6.5.46-.2,1.82.18,2,0s-.26-1.02,0-1.5c.53-.98,1.95-1.39,2-1.5,1.66.48,3.5-1.73,4.5-2,13.8-3.75,27.92-8.35,41.5-13Z"/>
  <path class="cls-11" d="M547,582c-.82.78-3.68-1.66-4.5-2-7.04-2.93-15.02-6.31-22-9-17.35-6.7-35.74-11.1-54-14l-2.5-3c7.23.54,15.39-.73,22.5,0,3.46.36,9.41,2.11,13,3,6.22,1.55,12.86,2.59,19,5,6.61,2.6,21.74,11.09,26.5,16.5.57.64,2.97,2.57,2,3.5Z"/>
  <path class="cls-12" d="M774,591c.82.78-.91,2.24-1,2.5-1.08,3.1-1.38,8.34-1,12,.04.36.94.62,1,1,.23,1.55-.27,3.49,0,5,.07.38.9.6,1,1,.83,3.32,1.16,6.77,3,10,.43.76,5,5.6,4,6.5-.17.15-3.9.17-4.5,0-.37-.1-4.91-4.72-5.5-5.5-3.01-4.01-5.7-12.19-7-17-.54-2,1.07-3.44-3.5-2.5-2.32.48-6.03,3.46-8,4-1.34.37-2.83.7-4,1-2.82.73-5.37.53-8,1-.37.07-.59.87-1,1-1.19.36-5.14-1.34-5.5-2.5-.3-.96,1.97-3.35,2.5-3.5,10.48-2.98,21.82-8.03,32-13,1.43.49,4.55-1.91,5.5-1Z"/>
  <path class="cls-8" d="M928,692v2l-4,1c-.07.65.14,1.46,0,2-.74,2.88-39.82,29.94-45.5,34-6.06,4.33-15.07,12.63-22,15-1.2.41.38,2.35-1.5,2-.45-2.3.29-2.57,1.5-4,1.12-1.32,2.7-2.82,4-4,7.81-7.09,16.94-14.07,25-21,9.6-8.25,18.32-17.41,29-23,.61-.32.43-.58.5-1h1.5c2.75-2.07,8.75-1.01,11.5-3Z"/>
  <path class="cls-11" d="M1012,558l1-4.5c9.97-16.51,17.6-32.9,27-50,1.16-2.11,2.74-6.1,4-8,.35-.52,3.26-3.43,3.5-3.5,1.21-.35,6.2,3.41,6.5,4.5.34,1.24-2.91,5.05-3,7-11.61,17.45-21.86,35.35-35,51-1.03,1.23-2.55,2.81-4,3.5Z"/>
  <path class="cls-5" d="M679,699c.05-.02-.18-.83.5-1,1.79-.44,6.36-1.3,8-1s4.6,2.88,5,3c3.34.99,7.14,1.83,10,3,1.16.47,4.14,2.81,5,3,1.54.33,4.9-.69,5.5,1.5s-.48,2.86-1,4c-.14.31.13.78,0,1-.36.61-2.85,3.07-3.5,3.5-.21.14-.74-.16-1,0-.68.4-2.57,1.88-3,2-.83.23-2.09-.2-3,0-.39.09-.62.93-1,1-.91.17-3.09.17-4,0-.37-.07-.59-.88-1-1-.64-.18-1.44.21-2,0-2.08-.77-4.61-2.84-7-3l-9.5-10c.19-.19-.19-1.81,0-2,.25-.25,2.68.26,3,0,.17-.14-1.72-2.54-1-4Z"/>
  <path class="cls-13" d="M845,621c-.79.8-3.4-.9-4.5-1-4.32-4.99-10.65-7.43-17-9-.4-.1-.62-.93-1-1-2.57-.46-12.31-.39-15,0-1.89.28-6.08,2.04-8,3-4.3.54-8.34,2.69-12,5-6.01-1.3-5.61-4.94-1-8,7.03-4.68,12.1-5.6,20-7,.38-.07.63-.95,1-1,3.05-.38,11.03-.43,14,0,.37.05.61.92,1,1,.93.18,2.19-.23,3,0,1.18.34,3.65,1.43,5,2,5.45,2.31,9.14,5.73,13.5,10.5.39,1.18,1.74,4.76,1,5.5Z"/>
  <path class="cls-24" d="M920,670c1.93-.22,2.06-.88,2.5-1,1.67-.46,4.33,2.81,5,3,1.12.32,2.86.32,4,1,.42.25,2.49,2.32,2.5,2.5.07,2.02-5.27,1.3-6.5,1.5-.38.06-.62.93-1,1-2.07.38-3.87-.27-6,1-.84.5-1.62,1.85-2.5,2.5l2,1c-1.59,1.74-3.62,2.63-6,2.5l-.5-1h-1.5c-1.38-.68-3.42,1.61-3,2,.21.19,1.81-.19,2,0,1.36,1.36-.93,2.7-2.5,2l-.5,1c-.05.02.18.83-.5,1-1.74.43-4.55-.3-6.5,0l3.5-3c2.07.37,3.76-.72,3.5-3l-4.5,1c-6.08-.74-10.24,2.47-15.5,0l5.5-2c8.37-.34,15.95-2.89,24-4l2.5-2c-5.8-.24-11.7.34-17.5,0s-7.46-.32-13,0c-7.25.42-14.73-.31-22,0-.87-.48-2.12-2.43-1.5-3,.39-.35,8.61.15,10.5,0,.36-.03.64-.97,1-1,14.13-1.31,28.51-1.37,42.5-3Z"/>
  <path class="cls-11" d="M800,645c-1.94.56-2.3-1.28-3.5-2-1.11-.67-3.34-.71-4-1s-3.35-1.97-3.5-2.5l3-9c2.51-3.1,3.52-3.28,6,0,.15.2-.17.76,0,1,2.72,3.91,6.59,7.91,9,12,.38.64,1.93,2.67,2,3,.22,1,.22,5.01,0,6-.08.37-.83.57-1,1-.95,2.39-2.14,5.1-4.5,6.5-.22.13-.69-.14-1,0-.41.19-.61.84-1,1-.54.22-1.35-.18-2,0-.41.12-.63.93-1,1-1.51.27-3.45-.23-5,0-.38.06-.64.96-1,1-1.62.17-6.76.34-8,0-2.57-.7-1.97-8.18,1-9,1.06-.29,2.78.22,4,0s4.83-1.79,6-2c1.59-.29,4.9.65,5.5-1.5s-.96-3.57-1-5.5Z"/>
  <path class="cls-6" d="M979,578c3.56-8.57,6.97-18.06,11-26.5,1.03-2.15,2.96-6.38,4-8,.27-.42,2.32-2.45,2.5-2.5.66-.18,5.31-.19,5.5,0,.12.12.14,2.84,0,3.5-.65,3.17-4.43,10.25-6,14-3.46,8.28-7.42,16.92-11,25.5l-3,2.5c-1.78,3.18-2.76,7.17-4,10-.26.6-1.57,2.73-2,3-.78.49-3.63.86-4,.5-.54-.53.59-3.6,1-4.5.52-1.16,2.93-3.76,3-4,.47-1.7.62-5.41,1-7.5.06-.32-.06-.68,0-1,2.91.4,1.58-.48,2-1.5.28-.68,1.6-1.23,1-3l-1-.5Z"/>
  <path class="cls-11" d="M677,705c-.55.55-13.93.28-15.5,0-.38-.07-.6-.9-1-1-8.81-2.18-15.69-5.76-20.5-13.5l-1-6.5,5.5,5c2.01.91,4.16,2.74,6,4,.65.44,2.53,3.05,3.5,2,.6-.65-2.62-6.7-4-7.5.7-1.57-.95-2.71-1-3-.31-1.74-.1-5.04,0-7,.08-1.62.83-2.85,2-1.5l2,6.5c3.22,3.11,5.67,7.72,9.5,10.5,3.34,2.43,7.09,2.59,11,4,1.46.53,3.51,2.94,5.5,2-.72,1.46,1.17,3.86,1,4-.32.26-2.75-.25-3,0-.19.19.19,1.81,0,2Z"/>
  <path class="cls-20" d="M695.5,291c1.25-.22,5.85-.26,7,0,.36.08.57.8,1,1,.31.14.78-.13,1,0,.61.36,3.07,2.85,3.5,3.5.22.33,2.91,5.67,3,6,.23.83-.2,2.09,0,3,.09.39.93.62,1,1,.17.91.17,3.09,0,4-.07.37-.88.59-1,1-.18.64.21,1.44,0,2-.14.39-.81.58-1,1-.28.63-.72,2.58-1,3-.4.6-4.19,4.41-4.5,4.5-.63.18-1.41-.19-2,0-.4.13-.6.88-1,1-1.96.59-2.63-.91-3-1-.9-.21-2.17.23-3,0-.37-.1-.57-.81-1-1-.31-.14-.78.13-1,0-.69-.41-4.01-3.76-4.5-4.5-.14-.21.16-.74,0-1-.38-.64-1.93-2.67-2-3-.34-1.57-.3-9.31,0-11,.05-.29,1.7-1.43,1-3,1.67-.97,2.91-5.04,4.5-5.5.63-.18,1.41.19,2,0,.41-.13.63-.93,1-1ZM695.5,298c-.24.07-3.43,3.26-3.5,3.5-.18.63.19,1.41,0,2-.13.41-.93.63-1,1-.17.91-.17,3.09,0,4,.07.37.87.59,1,1,.19.59-.18,1.37,0,2,.09.31,4.19,4.41,4.5,4.5,1.81.52,3.49-1.16,5-2,.57-.32,1.58-.05,2.5-1.5.13-.2-.15-.68,0-1,.2-.43.92-.65,1-1,.23-1.05.23-5.95,0-7-.08-.36-.8-.57-1-1-.14-.31.13-.78,0-1-1.71-2.87-5.25-4.4-8.5-3.5Z"/>
  <path class="cls-11" d="M875,699c-.49,2.94.72,1.57,1.5,2s1.37,1.99,2.5,2c-.11.05-.62,1.76-1.5,2-8.44,2.31-15.83,7.29-24,11-13.2,6-27.45,10.7-40,17l-5.5,1,3.5-3c18.23-9.93,36.23-19.64,54-28,2.76-1.3,7.14-2.55,9.5-4Z"/>
  <path class="cls-22" d="M810,479c-.74,1.65-3.03.3-2,3.5.17.52,1.57,1.3,2,2s2.94,4.7,3,5c.16.72.16,4.34,0,4.5-.3.3-3.7-.3-4,0-.19.19.19,1.81,0,2-1.21,1.21-4.42-1.61-5.5-2-2.85-1.03-6.2-1.33-9-3-.99-.59-1.39-1.95-1.5-2,2.3-2.53-.59-3.96-1-5.5-.23-.86.23-2.15,0-3-.14-.49-5.38-6.48-6-8-.21-.5.15-1.17,0-1.5l6.5,1c5.83,3,11.4,5.1,17.5,7Z"/>
  <path class="cls-3" d="M1032,640c12.75-4.36,26.81-9.56,39.5-14,3.44-1.2,7.56-2.97,11-4,.79-.24,1.87.49,2.5-.5l2,1.5-3.5,1c-16.56,9.93-34.37,16.77-51.5,24l-.5-1c-1.47,0-4.4.66-3.5-1.5.16-.38.78-.58,1-1,.31-.59.09-1.7,1.5-2.5.76-.43,1.99.93,1.5-2Z"/>
  <path class="cls-7" d="M795,519c.27,2.06,3.52.15,4,1.5.61,1.72,7.69,9.47,9.5,10.5.45.26,1.22-.17,1.5,0,.26.16-.94,3.25,3,2-.21.43.19,1.81,0,2-1.61,1.61-10.94,6.24-14,8l-5.5-8c-2.4-.64-1.23,1.77-1.5,2-1,.84-4.34-2.8-6-3,.19-.24-.28-1.09,0-1.5,2.53-3.67,4.82-6.87,6-11,.27-.95,2.92-2.32,3-2.5Z"/>
  <path class="cls-25" d="M842,487l-5,4.5c1.26,4.13-1.24,6.4-2,9-.57,1.94.71,2.31,1,3,1.08,2.59-2.88.97-4,1.5l-5.5-1c-5.46-.31-11.32-.91-16-3l-5.5-1c-1.37-1.17-.11-1.92,1.5-2,.89-.05,3.07-.2,3.5,0,1.7.8,4.4,1.51,6.5,2,2.45.57,3.16-.76,4-1,.64-.18,1.43.2,2,0s.85-1.53,2.5-1c.09-2.96,1.66-5.47,1-8.5l-2-5.5c.91.41,3.97-.23,5.5,0,3.92.58,8.3,2.27,12.5,3Z"/>
  <path class="cls-26" d="M786,534c1.66.2,5,3.84,6,3,.27-.23-.9-2.64,1.5-2l5.5,8c-1.82,1.05-4.33,3.09-6.5,4-2.9,1.22-.95,1.45-1.5,2-.21.21-1.76-.2-2.5,0-.4.11-.63.94-1,1-1.31.22-3.06-.04-4.5,0-1.67.05-3.96.24-5.5,0-.37-.06-.61-.91-1-1-.91-.2-2.17.23-3,0-.33-.09-5.58-2.74-6-3-.85-.54-2.16-2.38-1.5-3,.27-.26,2.75.6,3.5-1,4.1.21,8.8-1.61,12-4,.66-.49,4.21-3.63,4.5-4Z"/>
  <path class="cls-10" d="M1100,581c-.2.19-1.03-.26-1.5,0-1,.56-1.49,1.23-3,2-9.3,4.73-18.98,8.51-28.5,11.5-.88,1.41-3.02-.59-3-1,.02-.32,3.79-3.96,4.5-4.5,4.3-3.28,10.38-6.6,15-10,2.1-1.54,4.97-4.79,7-6,.22-.13.69.14,1,0,.43-.2.64-.92,1-1,3.28-.76,8.8,2.84,8.5,6.5-1.28.51-.9,2.41-1,2.5Z"/>
  <path class="cls-6" d="M949,700c-2.9-2.37-3.58-2.74-6,.5-2.14,2.86-3.91,8.3-6,12-4.23,7.49-10.16,14.91-14,23-1.29.32-2.18,3.7-2.5,3.5-2.28-1.44-.7-1.72-.5-3.5,5.81-11.19,9.95-23.83,14-35,.26-.71.65-.78,1-2.5,1.82.29.09,3.41,2.5,1,1.61-1.61,4.38-7.04,5.5-9.5.4-.87.33-2.38,2-2.5l1,3.5c2.84,3.15,2.62,5.83,3,9.5Z"/>
  <path class="cls-21" d="M800,511l6.5,1c2.39.66,1.15,5.65,1.5,6,.21.21,1.78-.21,2.5,0s2.3,2.81,3,3c1.09.3,2.91-.3,4,0,.56.15,1.69,2,2.5,2.5,2.32,1.41,2.95-.67,5-.5-2.33,2.34-11.46,8.88-12,10-3.94,1.25-2.74-1.84-3-2-.28-.17-1.05.26-1.5,0-1.81-1.03-8.89-8.78-9.5-10.5-.48-1.35-3.73.56-4-1.5.24-.53-.21-1.79,0-2.5.16-.56,4.3-4.69,5-5.5Z"/>
  <path class="cls-26" d="M930,296c-.19.19.19,1.81,0,2-.44.44-6-.41-7.5,0-1.04.29-1.88,2.92-2.5,4-11.82-8.7-21.99-15.97-36.5-20l-4.5-3c1.85-.87,4.7,1.23,5.5,1,1.4-.4,1.66-.62,4,0,9.79,2.62,20.33,6.33,30,10,2.47.94,5.54,1.67,8,3l3.5,3Z"/>
  <path class="cls-24" d="M992,664l-3,2c4.81-.17,9.69.23,14.5,0,7.64-.37,16.18-.92,24.5-1l-4.5,2c-2.77-.93-6.56.88-8,1-2.86.23-16.88-.62-17.5,0-.11.11-.11,2.89,0,3,.65.67,2.83-1.52,4.5-1,.66.21,3.57,1.92,4,2,1.92.34,4.46-.24,6.5,0l-3,2c-5.35,2.52-12.99-.58-18.5,2h-5.5c-.6-.28-2.74.26-3,0-.19-.19.19-1.81,0-2,1.15-1.27,1.29-3.55-.5-4-.65-.16-1.41.18-2,0-.41-.13-.62-.91-1-1-.46-.11-7.38.41-4.5-2,.21-.18,4.59-.14,5.5,0,.37.06.59.89,1,1,3.45.96,2.07-1.11,2.5-2-.13.13-2.18-.02-3,0-.97-3.84,4.91-1.91,3,0,.07-.14,2.35-1.96,2.5-2,.63-.18,1.41.19,2,0,.56-.18.94-1.53,3-1,.68.17.45.98.5,1Z"/>
  <path class="cls-21" d="M824,484l2,5.5c.66,3.03-.91,5.54-1,8.5-1.65-.53-1.91.79-2.5,1s-1.36-.18-2,0c-.84.24-1.55,1.57-4,1-2.1-.49-4.8-1.2-6.5-2l1-.5-2-1.5c.19-.19-.19-1.81,0-2,.3-.3,3.7.3,4,0,.16-.16.16-3.78,0-4.5-.06-.3-2.56-4.28-3-5s-1.83-1.48-2-2c-1.03-3.2,1.26-1.85,2-3.5,4.09,1.27,8.33,1.86,12.5,3,.88.24,1.39,1.95,1.5,2Z"/>
  <path class="cls-5" d="M905,663c-.74.64-4.35-.49-5.5-1-6.97-3.08-13.62-7.74-20-12-3.44-2.3-7.46-4.16-10.5-7.5-.72-.79-2.36-1.76-2-3,.49-1.67,4.06-1.83,5.5-1.5.33.07,5.46,2.64,6,3,7.5,5.02,15.85,11.72,23,17,.79.58,4.51,4.12,3.5,5Z"/>
  <path class="cls-6" d="M952,550c-.24,7.01-.89,13-1,20-.77.18-1.6-1.48-2-1-.5.59.37,9.58,0,11.5l1,.5c-.26.56.04,2.89,0,4-3.02-.57-1.97,1.53-2,3.5-.01,1.03.16,4.34,0,4.5-1.68,1.69-4.57-3.72-7-1,.43-6.44,0-22.75,2-27l6,2c.17-2.44-.24-5.09,0-7.5.12-1.26.96-3.17,1-6,.02-1.97-1.02-4.07,2-3.5Z"/>
  <path class="cls-25" d="M813,507c-.53,4.03.51,2.45,1.5,3,.69.38,1.5,1.86,2,2,1.22.34,5.14-.36,5.5,0,.19.19-.19,1.81,0,2l-2,4c1.64.32,8.47-.45,9,0,.16.14-.74,1.58-1,2l-2,2c-.47.55-.71.71-1,1-2.05-.17-2.68,1.91-5,.5-.81-.5-1.94-2.35-2.5-2.5-1.09-.3-2.91.3-4,0-.7-.19-2.27-2.78-3-3s-2.29.21-2.5,0c-.35-.35.89-5.34-1.5-6l-6.5-1c.75-.87,2.5-3.72,3.5-4,1.56-.43,4.31.38,6,0,.4-.09.68-1.36,2-1,.31.08.49.84,1.5,1Z"/>
  <path class="cls-3" d="M491,767c-.08.07-.06.27,0,.5l-3,1.5c2.79-.16,5.71.23,8.5,0,1.58-.13,3.73-1.22,7-1,2.16.14,3.48.43,5.5,1-8.13,3.83-50.07,2.19-61.5,1-1.06-.11-4.26-.7-6-1-.38-.06-.62-.93-1-1-1.27-.24-3.7.89-3.5-1,3.46.17,7.04-.23,10.5,0,9.13.62,20.88,2.43,30,0h13.5Z"/>
  <path class="cls-24" d="M960,692v2c-.24-.19-1.08.28-1.5,0-.71-.47-1.38-1.71-2-2-1.14-.54-2.05.38-1.5,1.5.21.44.92.65,1,1,.34,1.48.7,2.8,1,4,1.77,7.13,1.99,14.54,3,22,.2,1.5,1.28,1.99,1,3-.44,1.58-2.6,1.6-3,0-.69-2.75-5.51-13.41-5-14.5,1.68-3.58.52-7.28-1-11.5-.52-1.45-2.62-2.98-2-5,.13-.41.93-.63,1-1,.34-1.92-.24-4.46,0-6.5,3.12,2.25,5.51,5.26,9,7Z"/>
  <path class="cls-8" d="M883,525c3.04-1.94,1.28-.54,2.5,1,3.99,5.03,8.78,11.52,10.5,17.5.27.95,4.74,3.91,4,6.5,2.02.59,2.68-.7,2-2.5-.44-1.16-.61-1.67-1-3-1.2-4.11-5.25-11.75-4-14.5l3,4.5c4.16,10.17,4.4,22.47,8,32,.68,1.8.02,3.09-2,2.5.24-1.63-.38-3.06-1-4.5-5.87-13.64-13.51-28.1-22-39.5Z"/>
  <path class="cls-24" d="M501,746c.26,1.46-.36,7.64,0,8,.18.18,1.77-.13,2.5,0l.5,1c-.85.13-1.38.74-3,1l-.5-1h-2l-.5,1c-.97.46-4.49,1.87-5.5,2-2.97.37-6.45-.26-9.5,0,.11-.24-.18-.83.5-1,1.33-.32,4.58,1.01,4.5-1-1.23-.21-5.69.31-6,0-.18-.18-.18-4.82,0-5,.21-.21,1.76.2,2.5,0,.41-.11.64-.95,1-1,2.59-.38,5.8.27,8.5,0l-9-2c5.52-.39,10.58-1.43,16-2Z"/>
  <path class="cls-20" d="M1003,739c-.17-.17.22-.96,0-1.5-.18-.43-.94-.65-1-1-.17-.95-.22-4.21,0-5,.08-.31,4.19-4.42,4.5-4.5.72-.2,5.28-.2,6,0,.24.07,3.43,3.26,3.5,3.5.21.77.21,6.23,0,7-.07.24-3.26,3.43-3.5,3.5-.72.2-5.28.2-6,0-.5-.14-1.31-1.62-2-2-.47-.26-1.31.19-1.5,0Z"/>
  <path class="cls-16" d="M928,692c2.03-1.46,5.09-2.04,7.5-4,1.28.67,3.84-1.67,4.5-1,.16.16.13,3.69,0,4.5-.06.38-.92.61-1,1-.47,2.36,1.3,4.3-2.5,3.5-.39-.08-.65-.97-1-1-.62-.05-.45.97-.5,1-1.95,1.4-7.94,7.84-8.5,8-.66.19-1.5-.23-2,0-.61.29-6.11,3.92-4.5.5.64-1.35,3.95-3.42,5-5l-1-2.5c.14-.54-.07-1.35,0-2l4-1v-2Z"/>
  <path class="cls-8" d="M633,680c.1.09-.28,1.99,1,2.5-.01,4.16,3.17,7.59,4.5,11.5,1.22,3.58.56,5.74-3,3-1.27-.98-3.21-2.34-4-3-1.18-.99-8.33-7.92-8.5-8.5-.92-3.11,1.38-2.5,3.5-3.5,1.38-.65,5.07-3.34,6.5-2Z"/>
  <path class="cls-11" d="M624.5,570c1.97-.58,2.71.95,3,1,1.52.26,3.58-.32,5,0,.12.03,1.8.88,2,1,.53.32,4.42,4.19,4.5,4.5.67,2.45-.25,6.53-3.5,5.5-.41-.13-.63-.94-1-1-1.81-.32-4.2.32-6,0-.37-.07-.59-.87-1-1-.59-.19-1.37.18-2,0-2.35-.67-3.89-9.16-1-10Z"/>
  <path class="cls-6" d="M1041,620c-.19-.19.26-1.03,0-1.5-.86-1.55-2.89-1.78-2-5,.08-.31,4.19-4.42,4.5-4.5,2.66-.73,6.05.07,7.5,2.5.13.22-.14.69,0,1,.2.43.92.64,1,1,.17.76.17,3.24,0,4-.08.35-.8.57-1,1-.15.32.13.8,0,1-.83,1.31-4.15,2.9-5.5,2.5-.49-.14-2.37-1.74-3-2-.54-.23-1.33.17-1.5,0Z"/>
  <path class="cls-24" d="M873,606c.17.17-.22.96,0,1.5.18.43.94.65,1,1,.22,1.2-.15,2.72,0,4-2.49,1.57-4.96,8.55-8.5,7.5-2.62-.78-3.02-6.08-2.5-8.5.08-.36,1.72-2.38,2-3,.23-.51-.19-1.34,0-2,.48-1.66,3.85-1.8,5.5-1.5.35.06.57.82,1,1,.54.22,1.33-.17,1.5,0Z"/>
  <path class="cls-16" d="M983,617c4.22-7.26,6.56-10.5,12-17.5,1.11-1.42.9-2.41,1-2.5.11-.11,1.89-.39,2,.5.38,3.08-2.02,4.15-3,6-2.24,4.24-5.06,8.85-7,12.5-1.49-.05-2.64-.32-3.5,1h-1.5Z"/>
  <path class="cls-20" d="M834,251c-.65,1.72-3.94.99-5.5,1-8.32.05-16.27.03-24,1-2.36.3-5.39.3-7.5-1,1.64-.77,7.47-1.85,9.5-2,5.66-.41,23.92-.68,27.5,1Z"/>
  <path class="cls-24" d="M951,570c-.07,4.27.6,7.59-1,11l-1-.5c.37-1.92-.5-10.91,0-11.5.4-.48,1.23,1.18,2,1Z"/>
  <path class="cls-20" d="M794,252c.4,2.91-.48,1.58-1.5,2-.43.18-.65.94-1,1-1.2.22-6.64,1.09-7,1-.69-.18-.45-.98-.5-1l.5-1c3.38-.05,6.36-1.34,9.5-2Z"/>
  <path class="cls-25" d="M828,507c-.21.43.19,1.81,0,2-.32.32-8.68.32-9,0-.13-.13.07-1.36,0-2,2.99.02,6.01-.02,9,0Z"/>
  <path class="cls-6" d="M953,541c-.1,2.94-.7,5.1-1,7l-1-.5c.32-1.59-.44-7.97,0-8.5s1.56.42,1,1.5l1,.5Z"/>
  <path class="cls-6" d="M953,533l-1-.5c.13-2.58-.93-5.63,2-6.5-.08,3.37.29,4.25-1,7Z"/>
  <path class="cls-4" d="M811,376l4.5,2c14.64,5.32,29.6,10.59,44,15,6.18,1.89,11.94,3.42,18,5,15.07,3.94,31.36,6.53,47,9,3.27.52,5.56-1.63,4.5,3.5-.33,1.58-2.9,4.64-3,5-.5,1.75-6.31,15.81-7,16.5-1.03,1.03-.88-1.52-3,3.5-1.72,4.06-4.12,8-6,11.5-2.07-.37,0-3.13.5-4,5.46-9.67,11.54-20.71,15.5-30.5.27-.67,1.56-1.04,1-3-.67-2.34-5.37-1.23-7.5-1.5-14.38-1.8-30.11-5.5-44-9-16.82-4.24-33.65-9.75-50-16-2.76-1.06-9.85-4.53-12-5s-6.04,1.11-7.5-1c.9-.33,1.41-.98,1.5-1,1.03-.18,2.36.06,3.5,0Z"/>
  <path class="cls-14" d="M986,653c-.09.62.17,1.66,0,2-.05.11-1.47.52-2,1.5-.26.48.19,1.31,0,1.5s-1.54-.2-2,0c.21-.21-.55-2.98,2.5-5,.42-.28,1.23.18,1.5,0Z"/>
  <path class="cls-14" d="M935,661c.72-.72,1.17,3.87,3,2,.24-.25-.19-2.55,0-3.5.64-3.23.43-6.37,1-9s5.02-9.63,4-13c-1.67-5.5-.32-5.74,0-10,.15-2.02-.37-11.06,0-11.5,1.15-1.37,1.92-.13,2,1.5s-.2,3.46,0,5c.72,5.43,1.13,11.8,1.5,17.5l.5,5,2-3.5c.29-1.97.49-5.27,1-7,.11-.38.83-.58,1-1,.22-.54-.17-1.33,0-1.5.16-.16,3.02.04,4,0l.5,6c1.07,2.57.26,6.01.5,9l2-2.5c.42-1.92-1.06-4.64,2-5.5-.17,1.76.26,3.81,0,5.5-.06.37-.89.59-1,1-1.22,4.5-.36.86-2,2.5-.25.25-.24,6.74,0,7,.81.88,2.37-.98,3-1.5,2.85-2.38,6.7-4.66,8-7,1.05-1.88,5.03-5.18,7-5.5-.04,1.66.06,3.34,0,5-.02.65.15,1.6,0,2-.04.1-.56.78-1,1.5-.75,1.23-7.25,8.29-6,9.5.27.26,6.29.12,7.5,0,.36-.04.63-.95,1-1,1.26-.16,5.24.26,5.5,0-3.72,1.64-5.63,3.55-9,6.5-.82.72-2.28.65-3,2l11-.5c.82-.02,2.87.13,3,0-.43.89.95,2.96-2.5,2-.41-.11-.63-.94-1-1-.91-.14-5.29-.18-5.5,0-2.88,2.41,4.04,1.89,4.5,2,.38.09.59.87,1,1,.59.18,1.35-.16,2,0,1.79.45,1.65,2.73.5,4-.24-.24-5.42.78-6.5,1-.39.08-.63.95-1,1-2,.29-4.42-.2-6.5,0l3,3.5-2.5,1.5c-3.09.44-2.66-.28-2.5-3-2.86-.98-1.74,1.8-2,2-.4.31-3.34-.22-4.5,0-.41.08-1.72,1.78-3.5,1l3,4.5-4.5-1.5c-1.91,1.93.5,1.82,2,3,2.16,1.69,2.5,2.36,2.5,5-3.49-1.74-5.88-4.75-9-7-.24,2.04.34,4.58,0,6.5-.07.37-.87.59-1,1-.62,2.02,1.48,3.55,2,5,1.52,4.22,2.68,7.92,1,11.5l-1-.5c-1.24-3.34-2.64-5-3-8.5s-.16-6.35-3-9.5l-1-3.5c-1.67.12-1.6,1.63-2,2.5-1.12,2.46-3.89,7.89-5.5,9.5-2.41,2.41-.68-.71-2.5-1,.12-.58-.06-1.35,0-2,.05-.03-.12-1.05.5-1,.35.03.61.92,1,1,3.8.8,2.03-1.14,2.5-3.5.08-.39.94-.62,1-1,.13-.81.16-4.34,0-4.5-.66-.67-3.22,1.67-4.5,1-2.41,1.96-5.47,2.54-7.5,4-2.75,1.99-8.75.93-11.5,3h-1.5c.08-.49-.17-1.07,0-1.5.23-.57,3.27-2.5,3.5-2.5.52,0,1.77,2.88,1.5-1,2.86-1.33,2.06.41,3.5,0,.48-.14,2.38-1.74,3-2,.54-.23,1.33.17,1.5,0,.19-.19-.26-1.03,0-1.5.32-.58,2.53-2.07,2-2.5-1.22-1-3.13.91-3.5,1-4.67,1.18-9.37,1.77-14,3-1.17.31-4.28.9-4.5,1l.5-1c1.57.7,3.86-.64,2.5-2-.19-.19-1.79.19-2,0-.42-.39,1.62-2.68,3-2,.12.06-.49.86,2,1s4.41-.76,6-2.5l-2-1c.88-.65,1.66-2,2.5-2.5,2.13-1.27,3.93-.62,6-1,.38-.07.62-.94,1-1,1.23-.2,6.57.52,6.5-1.5,0-.18-2.08-2.25-2.5-2.5-1.14-.68-2.88-.68-4-1-.67-.19-3.33-3.46-5-3-.44.12-.57.78-2.5,1l-5.5-8-.5-3c2.37.24,8.06-4.39,9.5-4,.44.12,2.32,1.62,3,2,1.5.84,7.51,4.96,8,5,.62.05.45-.95.5-1ZM955.5,680c-.65,0-.65,1,0,1s.65-1,0-1Z"/>
  <path class="cls-6" d="M944,553c-.28,2.76,3.3,7.62-1,7,.14-3.37-.32-4.2,1-7Z"/>
  <path class="cls-16" d="M979,578l1,.5c.6,1.77-.72,2.32-1,3-.42,1.02.91,1.9-2,1.5.45-2.3,1.36-3.47,2-5Z"/>
  <path class="cls-20" d="M855,253c-1.01.13-1.24.96-1.5,1-2.95.49-6.72-.5-3-1l.5-1c1.16.03,2.33-.02,3.5,0l.5,1Z"/>
  <path class="cls-24" d="M1026,673l-.5,1c-2.83.05-5.68-.07-8.5,0l.5-1c2.83-.01,5.68.02,8.5,0Z"/>
  <path class="cls-14" d="M976,682l-1,.5v1.5c-.95,0-1.03-.79-1.5-1-.53-.23-1.32.18-1.5,0-1.75-1.75,1.53-2.48,3.5-2,.68.17.45.98.5,1Z"/>
  <path class="cls-20" d="M868,255c-.05.02.18.83-.5,1-2.19.53-4.26.36-3.5-2,1.16,0,2.33,0,3.5,0l.5,1Z"/>
  <path class="cls-20" d="M845,252c-.05.02.18.83-.5,1-2.8.68-6.76-.64-3-1l.5-1c.82.03,1.66-.02,2.5,0l.5,1Z"/>
  <path class="cls-20" d="M875,256l-.5,1c-2.53-.02-4.06.84-3.5-2,2.32.1,2.8.8,4,1Z"/>
  <path class="cls-16" d="M979,646c-.33.33-.78,2.16-2,2-.41-.16-1.37.09-2,0,.15-.4-.02-1.35,0-2h4Z"/>
  <path class="cls-8" d="M897,529h-1.5c-1.97-1.2-1.23-2.36-1.5-4,1.39.24,2.71,2.75,3,4Z"/>
  <path class="cls-20" d="M861,254c-.05.02.18.83-.5,1-2.9.71-5.28-.92-2-1l.5-1c.49.03,1-.03,1.5,0l.5,1Z"/>
  <path class="cls-24" d="M911,626c2.11-.26,2.26-.11,2,2-.95-.95-.6,1.65-2-2Z"/>
  <path class="cls-24" d="M1032,665l-.5,1h-2l-.5-1c.99,0,2.01,0,3,0Z"/>
  <path class="cls-20" d="M501,756c-.91.15-2.47-.25-3,0l.5-1h2l.5,1Z"/>
  <path class="cls-20" d="M783,255l-.5,1h-1.5c.13-.04-.52-.98,2-1Z"/>
  <path class="cls-15" d="M1045,694c.8.67-1.24,1.64-2,1-.8-.67,1.24-1.64,2-1Z"/>
  <path class="cls-25" d="M816,507c.33.02.67-.01,1,0l-.5,1-.5-1Z"/>
  <path class="cls-16" d="M973,630c.64-.88.96-.94,1-1l-1,1Z"/>
  <path class="cls-16" d="M981,619c.69-1,.96-.94,1-1l-1,1Z"/>
  <path class="cls-15" d="M983,674c.19.19-.19,1.81,0,2,.26.26,2.4-.28,3,0,3.26,1.53,7.67,1.97,11.5,3,14,3.75,27.49,9.5,42,13l2.5,2c-1.77-.16-3.78.23-5.5,0-9.55-1.3-21.31-5.03-31-7-6.87-1.4-24.55-2.67-29.5-5-.05-.02.18-.83-.5-1-1.97-.48-5.25.25-3.5,2,.18.18.97-.23,1.5,0,.47.21.55.99,1.5,1s1.61-1.47,2-1c.26.31-.25,2.75,0,3,.29.29,3.39-.24,4.5,0,.35.08,2.36,1.67,3,2,14.13,7.31,27.71,16.55,42,24l4.5,4-62-25c.57.95.92,2.22,1.5,3,4.34,5.78,9.39,10.88,12.5,17.5l2.5,4.5c-4.83-2.57-7.9-6.56-12-10-2.17-1.82-5.83-4.17-8-6-1.9-1.6-4.06-4.89-5.5-6v-2c0-2.64-.34-3.31-2.5-5-1.5-1.18-3.91-1.07-2-3l4.5,1.5-3-4.5c1.78.78,3.09-.92,3.5-1,1.16-.22,4.1.31,4.5,0,.26-.2-.86-2.98,2-2-.16,2.72-.59,3.44,2.5,3l2.5-1.5-3-3.5c2.08-.2,4.5.29,6.5,0,.37-.05.61-.92,1-1,1.08-.22,6.26-1.24,6.5-1ZM963,687c-.76-.64-2.8.33-2,1,.76.64,2.8-.33,2-1Z"/>
  <path class="cls-6" d="M914,685c-2.49-.14-1.88-.94-2-1h1.5l.5,1Z"/>
  <path class="cls-15" d="M955.5,680c.65,0,.65,1,0,1s-.65-1,0-1Z"/>
  <path class="cls-19" d="M929,397c-18.66-2.79-36.59-4.55-54.5-9l-5.5-2c4.16-1.89,17.04,2.79,22.5,4,10.76,2.38,22.08,3,33,5,1.75.32,3.73-.76,4.5,2Z"/>
  <path class="cls-19" d="M864,384l-6.5-1c-8.12-2.73-16.9-6.88-24.5-10h4.5c6.52,3.76,14.06,5.78,21,8,2.69.86,3.67.81,5.5,3Z"/>
  <path class="cls-19" d="M865,385l.5-1c2.31-.17,2.87-.4,2.5,2-.84-.2-1.96-.68-3-1Z"/>
  <path class="cls-25" d="M836,508l-.5,1h-1.5c.15-1.22-.45-2.75,1.5-2,.7.27.45.98.5,1Z"/>
  <path class="cls-21" d="M826,522l2-2c-.88,1.44-1.6,1.53-2,2Z"/>
  <path class="cls-14" d="M963,687c.8.67-1.24,1.64-2,1-.8-.67,1.24-1.64,2-1Z"/>
  <path class="cls-16" d="M981,635c-.18.18-2.42.23-2-.5,1.68-2.89,3.03-.53,2,.5Z"/>
  <path class="cls-7" d="M899,416l-4.5,3c-17.01,7.66-33.47,16.7-51,25-4.05,1.92-7.92,2.63-13,2-2.57-.32-7.4-2.03-10-3l-5.5-1c.15-1.64,1.53-1.61,2.5-2,16-6.5,32.17-14.61,48-21,8.5-3.43,15.3-4.72,25-4,.36.03.64.96,1,1,2.42.23,5.05-.16,7.5,0Z"/>
  <path class="cls-9" d="M847,451c-2-1.73.57-1.69,1.5-2,7.3-2.42,14.58-7.68,21-11,9.38-4.85,19.75-8.9,29-14,.69-.38,3.27-2.27,3.5-2,.53.62-.58,3.57-1,4.5-2.22,4.93-7.06,10.32-10,15-2.02,3.21-3.68,7.88-6,11-.43.58-3.26,3.43-3.5,3.5-1.54.42-8.91.19-11,0-6.55-.6-13.24-3.62-20-4-.76-1.61-3.18-.72-3.5-1Z"/>
  <path class="cls-9" d="M873,408l-4.5,3c-9.59,2.96-18.86,7.56-28,10l-7.5,1,2.5-3c3.82-1.25,7.48-4.95,11-7,2.85-1.66,8.28-4.22,11-5,1.05-.3,2.59-4.02,5-1,3.64-.38,6.58,2.52,10.5,2Z"/>
</svg>
